<svg xmlns="http://www.w3.org/2000/svg" width="27.999" height="28" viewBox="0 0 27.999 28">
  <g id="call_icn" transform="translate(-204 -3511)">
    <path id="Path_68" data-name="Path 68" d="M217.112,3524.131l1.5-3.255a5.714,5.714,0,0,1-1.042-5.208,6.286,6.286,0,0,1,6.966-3.971c2.929.456,6.054,4.3,4.427,7.812a6.639,6.639,0,0,1-5.6,4.1,22.849,22.849,0,0,1-2.669-.586Z" transform="translate(2.185 0.103)" fill="#ffc400"/>
    <g id="Group_110" data-name="Group 110" transform="translate(204 3511)">
      <path id="Path_60" data-name="Path 60" d="M443.571,110.559a.547.547,0,1,1-.547-.547A.547.547,0,0,1,443.571,110.559Zm0,0" transform="translate(-418.306 -103.996)" fill="#2a2c2e"/>
      <path id="Path_61" data-name="Path 61" d="M383.563,110.559a.547.547,0,1,1-.547-.547A.547.547,0,0,1,383.563,110.559Zm0,0" transform="translate(-361.58 -103.996)" fill="#2a2c2e"/>
      <path id="Path_62" data-name="Path 62" d="M323.559,110.559a.547.547,0,1,1-.547-.547A.547.547,0,0,1,323.559,110.559Zm0,0" transform="translate(-304.858 -103.996)" fill="#2a2c2e"/>
      <path id="Path_63" data-name="Path 63" d="M279.024,0a6.57,6.57,0,0,0-6.563,6.563,6.493,6.493,0,0,0,1.121,3.658L272.488,13.5a.547.547,0,0,0,.763.662l3.164-1.582a6.479,6.479,0,0,0,2.608.546,6.563,6.563,0,1,0,0-13.126Zm0,12.032a5.414,5.414,0,0,1-2.379-.551.548.548,0,0,0-.483,0l-2.217,1.109.763-2.289a.547.547,0,0,0-.079-.5,5.416,5.416,0,0,1-1.074-3.243,5.469,5.469,0,1,1,5.469,5.469Zm0,0" transform="translate(-257.588 0)" fill="#2a2c2e"/>
      <path id="Path_64" data-name="Path 64" d="M179.547,312.574a.547.547,0,1,1-.547-.547A.547.547,0,0,1,179.547,312.574Zm0,0" transform="translate(-168.721 -294.963)" fill="#2a2c2e"/>
      <path id="Path_65" data-name="Path 65" d="M19.472,67.7a.547.547,0,0,0-.774,0l-2.622,2.621a1.107,1.107,0,0,1-1.366.181,20.757,20.757,0,0,1-1.749-1.25.547.547,0,1,0-.681.856,21.886,21.886,0,0,0,1.841,1.315,2.207,2.207,0,0,0,2.728-.329l2.235-2.234,5.136,5.136L22.2,76.016a4.4,4.4,0,0,1-4.888.962A30.709,30.709,0,0,1,1.99,61.655a4.446,4.446,0,0,1,.919-4.986L4.9,54.675l5.136,5.136L7.8,62.045a2.207,2.207,0,0,0-.328,2.728c.387.605.808,1.2,1.252,1.762a.547.547,0,0,0,.859-.677c-.422-.536-.822-1.1-1.19-1.674a1.107,1.107,0,0,1,.18-1.366L11.2,60.2a.547.547,0,0,0,0-.774L5.29,53.515a.547.547,0,0,0-.774,0l-2.38,2.38A5.544,5.544,0,0,0,1,62.114a31.857,31.857,0,0,0,15.861,15.86,5.5,5.5,0,0,0,6.112-1.185l2.41-2.41a.547.547,0,0,0,0-.774Zm0,0" transform="translate(-0.5 -50.437)" fill="#2a2c2e"/>
    </g>
  </g>
</svg>
