<svg xmlns="http://www.w3.org/2000/svg" xmlns:xlink="http://www.w3.org/1999/xlink" width="72" height="92" viewBox="0 0 72 92">
  <defs>
    <clipPath id="clip-path">
      <rect width="72" height="92" fill="none"/>
    </clipPath>
  </defs>
  <g id="dot_grid_img1" clip-path="url(#clip-path)">
    <g transform="translate(-895 -2347)">
      <circle id="Ellipse_5" data-name="Ellipse 5" cx="2" cy="2" r="2" transform="translate(895 2347)" fill="#1f3d8a" opacity="0.2"/>
    </g>
    <g transform="translate(-879 -2347)">
      <circle id="Ellipse_5-2" data-name="Ellipse 5" cx="2" cy="2" r="2" transform="translate(895 2347)" fill="#1f3d8a" opacity="0.2"/>
    </g>
    <g transform="translate(-863 -2347)">
      <circle id="Ellipse_5-3" data-name="Ellipse 5" cx="2" cy="2" r="2" transform="translate(895 2347)" fill="#1f3d8a" opacity="0.2"/>
    </g>
    <g transform="translate(-847 -2347)">
      <circle id="Ellipse_5-4" data-name="Ellipse 5" cx="2" cy="2" r="2" transform="translate(895 2347)" fill="#1f3d8a" opacity="0.2"/>
    </g>
    <g transform="translate(-831 -2347)">
      <circle id="Ellipse_5-5" data-name="Ellipse 5" cx="2" cy="2" r="2" transform="translate(895 2347)" fill="#1f3d8a" opacity="0.2"/>
    </g>
    <g transform="translate(-895 -2331)">
      <circle id="Ellipse_5-6" data-name="Ellipse 5" cx="2" cy="2" r="2" transform="translate(895 2347)" fill="#1f3d8a" opacity="0.2"/>
    </g>
    <g transform="translate(-879 -2331)">
      <circle id="Ellipse_5-7" data-name="Ellipse 5" cx="2" cy="2" r="2" transform="translate(895 2347)" fill="#1f3d8a" opacity="0.2"/>
    </g>
    <g transform="translate(-863 -2331)">
      <circle id="Ellipse_5-8" data-name="Ellipse 5" cx="2" cy="2" r="2" transform="translate(895 2347)" fill="#1f3d8a" opacity="0.2"/>
    </g>
    <g transform="translate(-847 -2331)">
      <circle id="Ellipse_5-9" data-name="Ellipse 5" cx="2" cy="2" r="2" transform="translate(895 2347)" fill="#1f3d8a" opacity="0.2"/>
    </g>
    <g transform="translate(-831 -2331)">
      <circle id="Ellipse_5-10" data-name="Ellipse 5" cx="2" cy="2" r="2" transform="translate(895 2347)" fill="#1f3d8a" opacity="0.2"/>
    </g>
    <g transform="translate(-895 -2315)">
      <circle id="Ellipse_5-11" data-name="Ellipse 5" cx="2" cy="2" r="2" transform="translate(895 2347)" fill="#1f3d8a" opacity="0.2"/>
    </g>
    <g transform="translate(-879 -2315)">
      <circle id="Ellipse_5-12" data-name="Ellipse 5" cx="2" cy="2" r="2" transform="translate(895 2347)" fill="#1f3d8a" opacity="0.2"/>
    </g>
    <g transform="translate(-863 -2315)">
      <circle id="Ellipse_5-13" data-name="Ellipse 5" cx="2" cy="2" r="2" transform="translate(895 2347)" fill="#1f3d8a" opacity="0.2"/>
    </g>
    <g transform="translate(-847 -2315)">
      <circle id="Ellipse_5-14" data-name="Ellipse 5" cx="2" cy="2" r="2" transform="translate(895 2347)" fill="#1f3d8a" opacity="0.2"/>
    </g>
    <g transform="translate(-831 -2315)">
      <circle id="Ellipse_5-15" data-name="Ellipse 5" cx="2" cy="2" r="2" transform="translate(895 2347)" fill="#1f3d8a" opacity="0.2"/>
    </g>
    <g transform="translate(-895 -2299)">
      <circle id="Ellipse_5-16" data-name="Ellipse 5" cx="2" cy="2" r="2" transform="translate(895 2347)" fill="#1f3d8a" opacity="0.2"/>
    </g>
    <g transform="translate(-879 -2299)">
      <circle id="Ellipse_5-17" data-name="Ellipse 5" cx="2" cy="2" r="2" transform="translate(895 2347)" fill="#1f3d8a" opacity="0.2"/>
    </g>
    <g transform="translate(-863 -2299)">
      <circle id="Ellipse_5-18" data-name="Ellipse 5" cx="2" cy="2" r="2" transform="translate(895 2347)" fill="#1f3d8a" opacity="0.2"/>
    </g>
    <g transform="translate(-847 -2299)">
      <circle id="Ellipse_5-19" data-name="Ellipse 5" cx="2" cy="2" r="2" transform="translate(895 2347)" fill="#1f3d8a" opacity="0.2"/>
    </g>
    <g transform="translate(-831 -2299)">
      <circle id="Ellipse_5-20" data-name="Ellipse 5" cx="2" cy="2" r="2" transform="translate(895 2347)" fill="#1f3d8a" opacity="0.2"/>
    </g>
    <g transform="translate(-895 -2283)">
      <circle id="Ellipse_5-21" data-name="Ellipse 5" cx="2" cy="2" r="2" transform="translate(895 2347)" fill="#1f3d8a" opacity="0.2"/>
    </g>
    <g transform="translate(-879 -2283)">
      <circle id="Ellipse_5-22" data-name="Ellipse 5" cx="2" cy="2" r="2" transform="translate(895 2347)" fill="#1f3d8a" opacity="0.2"/>
    </g>
    <g transform="translate(-863 -2283)">
      <circle id="Ellipse_5-23" data-name="Ellipse 5" cx="2" cy="2" r="2" transform="translate(895 2347)" fill="#1f3d8a" opacity="0.2"/>
    </g>
    <g transform="translate(-847 -2283)">
      <circle id="Ellipse_5-24" data-name="Ellipse 5" cx="2" cy="2" r="2" transform="translate(895 2347)" fill="#1f3d8a" opacity="0.2"/>
    </g>
    <g transform="translate(-831 -2283)">
      <circle id="Ellipse_5-25" data-name="Ellipse 5" cx="2" cy="2" r="2" transform="translate(895 2347)" fill="#1f3d8a" opacity="0.2"/>
    </g>
    <g transform="translate(-895 -2267)">
      <circle id="Ellipse_5-26" data-name="Ellipse 5" cx="2" cy="2" r="2" transform="translate(895 2347)" fill="#1f3d8a" opacity="0.2"/>
    </g>
    <g transform="translate(-879 -2267)">
      <circle id="Ellipse_5-27" data-name="Ellipse 5" cx="2" cy="2" r="2" transform="translate(895 2347)" fill="#1f3d8a" opacity="0.2"/>
    </g>
    <g transform="translate(-863 -2267)">
      <circle id="Ellipse_5-28" data-name="Ellipse 5" cx="2" cy="2" r="2" transform="translate(895 2347)" fill="#1f3d8a" opacity="0.2"/>
    </g>
    <g transform="translate(-847 -2267)">
      <circle id="Ellipse_5-29" data-name="Ellipse 5" cx="2" cy="2" r="2" transform="translate(895 2347)" fill="#1f3d8a" opacity="0.2"/>
    </g>
    <g transform="translate(-831 -2267)">
      <circle id="Ellipse_5-30" data-name="Ellipse 5" cx="2" cy="2" r="2" transform="translate(895 2347)" fill="#1f3d8a" opacity="0.2"/>
    </g>
  </g>
</svg>
