<svg xmlns="http://www.w3.org/2000/svg" width="28" height="18.171" viewBox="0 0 28 18.171">
  <g id="email_icn" transform="translate(-204 -3563.212)">
    <path id="Path_69" data-name="Path 69" d="M206.44,3579.864l-1.7-1.052,7.662-9.164,4.156,3.706,1.552.551,1.953-.951,3.505-3.305,7.111,9.464-1.8.952Z" transform="translate(0.123 1.073)" fill="#3fc0f0"/>
    <path id="Path_66" data-name="Path 66" d="M28,2.948A2.939,2.939,0,0,0,27.1.832L27.081.81A2.935,2.935,0,0,0,25.052,0H2.948A2.935,2.935,0,0,0,.919.81L.9.832A2.939,2.939,0,0,0,0,2.948V15.223a2.936,2.936,0,0,0,.738,1.949l.026.031a2.956,2.956,0,0,0,1.932.958h.013c.079.006.159.01.239.01h22.1c.08,0,.16,0,.239-.01H25.3a2.956,2.956,0,0,0,1.932-.958l.026-.031A2.936,2.936,0,0,0,28,15.224ZM25.976,16.831l-.007,0-.007,0a1.856,1.856,0,0,1-.687.226h0l-.014,0a1.861,1.861,0,0,1-.208.012H2.948a1.861,1.861,0,0,1-.208-.012l-.015,0a1.86,1.86,0,0,1-.689-.227h0l-.011-.006c-.035-.021-.07-.042-.1-.065l2.43-3.094A.547.547,0,1,0,3.489,13L1.217,15.889a1.849,1.849,0,0,1-.123-.665V2.948a1.843,1.843,0,0,1,.266-.956L7.736,7.615,6.208,9.555a.547.547,0,1,0,.859.677L8.558,8.339l3.328,2.934a3.2,3.2,0,0,0,4.229,0l3.328-2.934,6.638,8.426c-.034.023-.069.044-.1.065ZM2.948,1.094h22.1a1.842,1.842,0,0,1,.766.166L19.159,7.131l-.016.014-3.752,3.309a2.107,2.107,0,0,1-2.782,0L8.857,7.145l-.016-.014L2.182,1.26a1.844,1.844,0,0,1,.766-.166ZM20.264,7.615,26.64,1.992a1.843,1.843,0,0,1,.266.956V15.223a1.845,1.845,0,0,1-.124.666Zm0,0" transform="translate(204 3563.212)" fill="#2a2c2e"/>
    <path id="Path_67" data-name="Path 67" d="M88.9,201.091a.548.548,0,0,0-.05-.094.549.549,0,0,0-.152-.152.551.551,0,0,0-.094-.05.564.564,0,0,0-.1-.031.536.536,0,0,0-.213,0,.547.547,0,0,0-.1.031.541.541,0,0,0-.095.05.562.562,0,0,0-.083.068.521.521,0,0,0-.068.083.551.551,0,0,0-.05.094.537.537,0,0,0-.031.1.551.551,0,0,0-.011.107.544.544,0,0,0,.011.107.517.517,0,0,0,.031.1.541.541,0,0,0,.05.095.52.52,0,0,0,.068.083.51.51,0,0,0,.083.068.541.541,0,0,0,.095.05.535.535,0,0,0,.316.031.564.564,0,0,0,.1-.031.551.551,0,0,0,.094-.05.521.521,0,0,0,.083-.068.573.573,0,0,0,.068-.083.538.538,0,0,0,.05-.095.549.549,0,0,0,.032-.1.544.544,0,0,0,.01-.107.551.551,0,0,0-.01-.107A.572.572,0,0,0,88.9,201.091Zm0,0" transform="translate(120.953 3373.438)" fill="#2a2c2e"/>
  </g>
</svg>
