<svg xmlns="http://www.w3.org/2000/svg" xmlns:xlink="http://www.w3.org/1999/xlink" width="706.61" height="1292.452" viewBox="0 0 706.61 1292.452">
  <defs>
    <linearGradient id="linear-gradient" x1="-0.139" y1="0.599" x2="0.98" y2="0.587" gradientUnits="objectBoundingBox">
      <stop offset="0" stop-color="#fff"/>
      <stop offset="1" stop-color="#f1f4fc"/>
    </linearGradient>
    <clipPath id="clip-path">
      <rect width="72" height="92" fill="none"/>
    </clipPath>
  </defs>
  <g id="home_pathimg2" transform="translate(4 -1119.774)">
    <path id="Path_70" data-name="Path 70" d="M1889,818.046s184.968-93.9,354.137,9.049,162.578,304.558,252.655,450.4,197.73,510.457-68.107,679.894S1889,2015.3,1889,2015.3Z" transform="translate(-1893 360.904)" opacity="0.7" fill="url(#linear-gradient)"/>
    <g id="Repeat_Grid_6" data-name="Repeat Grid 6" transform="translate(55 1119.774)" clip-path="url(#clip-path)">
      <g transform="translate(-895 -2347)">
        <circle id="Ellipse_5" data-name="Ellipse 5" cx="2" cy="2" r="2" transform="translate(895 2347)" fill="#1f3d8a" opacity="0.2"/>
      </g>
      <g transform="translate(-879 -2347)">
        <circle id="Ellipse_5-2" data-name="Ellipse 5" cx="2" cy="2" r="2" transform="translate(895 2347)" fill="#1f3d8a" opacity="0.2"/>
      </g>
      <g transform="translate(-863 -2347)">
        <circle id="Ellipse_5-3" data-name="Ellipse 5" cx="2" cy="2" r="2" transform="translate(895 2347)" fill="#1f3d8a" opacity="0.2"/>
      </g>
      <g transform="translate(-847 -2347)">
        <circle id="Ellipse_5-4" data-name="Ellipse 5" cx="2" cy="2" r="2" transform="translate(895 2347)" fill="#1f3d8a" opacity="0.2"/>
      </g>
      <g transform="translate(-831 -2347)">
        <circle id="Ellipse_5-5" data-name="Ellipse 5" cx="2" cy="2" r="2" transform="translate(895 2347)" fill="#1f3d8a" opacity="0.2"/>
      </g>
      <g transform="translate(-895 -2331)">
        <circle id="Ellipse_5-6" data-name="Ellipse 5" cx="2" cy="2" r="2" transform="translate(895 2347)" fill="#1f3d8a" opacity="0.2"/>
      </g>
      <g transform="translate(-879 -2331)">
        <circle id="Ellipse_5-7" data-name="Ellipse 5" cx="2" cy="2" r="2" transform="translate(895 2347)" fill="#1f3d8a" opacity="0.2"/>
      </g>
      <g transform="translate(-863 -2331)">
        <circle id="Ellipse_5-8" data-name="Ellipse 5" cx="2" cy="2" r="2" transform="translate(895 2347)" fill="#1f3d8a" opacity="0.2"/>
      </g>
      <g transform="translate(-847 -2331)">
        <circle id="Ellipse_5-9" data-name="Ellipse 5" cx="2" cy="2" r="2" transform="translate(895 2347)" fill="#1f3d8a" opacity="0.2"/>
      </g>
      <g transform="translate(-831 -2331)">
        <circle id="Ellipse_5-10" data-name="Ellipse 5" cx="2" cy="2" r="2" transform="translate(895 2347)" fill="#1f3d8a" opacity="0.2"/>
      </g>
      <g transform="translate(-895 -2315)">
        <circle id="Ellipse_5-11" data-name="Ellipse 5" cx="2" cy="2" r="2" transform="translate(895 2347)" fill="#1f3d8a" opacity="0.2"/>
      </g>
      <g transform="translate(-879 -2315)">
        <circle id="Ellipse_5-12" data-name="Ellipse 5" cx="2" cy="2" r="2" transform="translate(895 2347)" fill="#1f3d8a" opacity="0.2"/>
      </g>
      <g transform="translate(-863 -2315)">
        <circle id="Ellipse_5-13" data-name="Ellipse 5" cx="2" cy="2" r="2" transform="translate(895 2347)" fill="#1f3d8a" opacity="0.2"/>
      </g>
      <g transform="translate(-847 -2315)">
        <circle id="Ellipse_5-14" data-name="Ellipse 5" cx="2" cy="2" r="2" transform="translate(895 2347)" fill="#1f3d8a" opacity="0.2"/>
      </g>
      <g transform="translate(-831 -2315)">
        <circle id="Ellipse_5-15" data-name="Ellipse 5" cx="2" cy="2" r="2" transform="translate(895 2347)" fill="#1f3d8a" opacity="0.2"/>
      </g>
      <g transform="translate(-895 -2299)">
        <circle id="Ellipse_5-16" data-name="Ellipse 5" cx="2" cy="2" r="2" transform="translate(895 2347)" fill="#1f3d8a" opacity="0.2"/>
      </g>
      <g transform="translate(-879 -2299)">
        <circle id="Ellipse_5-17" data-name="Ellipse 5" cx="2" cy="2" r="2" transform="translate(895 2347)" fill="#1f3d8a" opacity="0.2"/>
      </g>
      <g transform="translate(-863 -2299)">
        <circle id="Ellipse_5-18" data-name="Ellipse 5" cx="2" cy="2" r="2" transform="translate(895 2347)" fill="#1f3d8a" opacity="0.2"/>
      </g>
      <g transform="translate(-847 -2299)">
        <circle id="Ellipse_5-19" data-name="Ellipse 5" cx="2" cy="2" r="2" transform="translate(895 2347)" fill="#1f3d8a" opacity="0.2"/>
      </g>
      <g transform="translate(-831 -2299)">
        <circle id="Ellipse_5-20" data-name="Ellipse 5" cx="2" cy="2" r="2" transform="translate(895 2347)" fill="#1f3d8a" opacity="0.2"/>
      </g>
      <g transform="translate(-895 -2283)">
        <circle id="Ellipse_5-21" data-name="Ellipse 5" cx="2" cy="2" r="2" transform="translate(895 2347)" fill="#1f3d8a" opacity="0.2"/>
      </g>
      <g transform="translate(-879 -2283)">
        <circle id="Ellipse_5-22" data-name="Ellipse 5" cx="2" cy="2" r="2" transform="translate(895 2347)" fill="#1f3d8a" opacity="0.2"/>
      </g>
      <g transform="translate(-863 -2283)">
        <circle id="Ellipse_5-23" data-name="Ellipse 5" cx="2" cy="2" r="2" transform="translate(895 2347)" fill="#1f3d8a" opacity="0.2"/>
      </g>
      <g transform="translate(-847 -2283)">
        <circle id="Ellipse_5-24" data-name="Ellipse 5" cx="2" cy="2" r="2" transform="translate(895 2347)" fill="#1f3d8a" opacity="0.2"/>
      </g>
      <g transform="translate(-831 -2283)">
        <circle id="Ellipse_5-25" data-name="Ellipse 5" cx="2" cy="2" r="2" transform="translate(895 2347)" fill="#1f3d8a" opacity="0.2"/>
      </g>
      <g transform="translate(-895 -2267)">
        <circle id="Ellipse_5-26" data-name="Ellipse 5" cx="2" cy="2" r="2" transform="translate(895 2347)" fill="#1f3d8a" opacity="0.2"/>
      </g>
      <g transform="translate(-879 -2267)">
        <circle id="Ellipse_5-27" data-name="Ellipse 5" cx="2" cy="2" r="2" transform="translate(895 2347)" fill="#1f3d8a" opacity="0.2"/>
      </g>
      <g transform="translate(-863 -2267)">
        <circle id="Ellipse_5-28" data-name="Ellipse 5" cx="2" cy="2" r="2" transform="translate(895 2347)" fill="#1f3d8a" opacity="0.2"/>
      </g>
      <g transform="translate(-847 -2267)">
        <circle id="Ellipse_5-29" data-name="Ellipse 5" cx="2" cy="2" r="2" transform="translate(895 2347)" fill="#1f3d8a" opacity="0.2"/>
      </g>
      <g transform="translate(-831 -2267)">
        <circle id="Ellipse_5-30" data-name="Ellipse 5" cx="2" cy="2" r="2" transform="translate(895 2347)" fill="#1f3d8a" opacity="0.2"/>
      </g>
    </g>
  </g>
</svg>
