<svg xmlns="http://www.w3.org/2000/svg" xmlns:xlink="http://www.w3.org/1999/xlink" width="582" height="260" viewBox="0 0 582 260">
  <defs>
    <clipPath id="clip-path">
      <rect id="Rectangle_76" data-name="Rectangle 76" width="582" height="260" transform="translate(203 826)" fill="#9cc760"/>
    </clipPath>
    <clipPath id="clip-path-2">
      <rect width="66" height="97" fill="none"/>
    </clipPath>
  </defs>
  <g id="story_box_bgimg1" transform="translate(-203 -826)">
    <g id="Mask_Group_5" data-name="Mask Group 5" clip-path="url(#clip-path)">
      <ellipse id="Ellipse_19" data-name="Ellipse 19" cx="91.5" cy="91" rx="91.5" ry="91" transform="translate(666 974)" fill="#fff" opacity="0.4"/>
      <ellipse id="Ellipse_21" data-name="Ellipse 21" cx="39.5" cy="39" rx="39.5" ry="39" transform="translate(627 1057)" fill="#fff" opacity="0.4"/>
      <ellipse id="Ellipse_20" data-name="Ellipse 20" cx="85" cy="84.5" rx="85" ry="84.5" transform="translate(166 798)" fill="#fff" opacity="0.2"/>
    </g>
    <g id="Repeat_Grid_4" data-name="Repeat Grid 4" transform="translate(719 838)" opacity="0.5" clip-path="url(#clip-path-2)">
      <g transform="translate(-1460 -204)">
        <circle id="Ellipse_17" data-name="Ellipse 17" cx="2" cy="2" r="2" transform="translate(1460 204)" fill="#d7dbe8"/>
      </g>
      <g transform="translate(-1446 -204)">
        <circle id="Ellipse_17-2" data-name="Ellipse 17" cx="2" cy="2" r="2" transform="translate(1460 204)" fill="#d7dbe8"/>
      </g>
      <g transform="translate(-1432 -204)">
        <circle id="Ellipse_17-3" data-name="Ellipse 17" cx="2" cy="2" r="2" transform="translate(1460 204)" fill="#d7dbe8"/>
      </g>
      <g transform="translate(-1418 -204)">
        <circle id="Ellipse_17-4" data-name="Ellipse 17" cx="2" cy="2" r="2" transform="translate(1460 204)" fill="#d7dbe8"/>
      </g>
      <g transform="translate(-1404 -204)">
        <circle id="Ellipse_17-5" data-name="Ellipse 17" cx="2" cy="2" r="2" transform="translate(1460 204)" fill="#d7dbe8"/>
      </g>
      <g transform="translate(-1460 -190)">
        <circle id="Ellipse_17-6" data-name="Ellipse 17" cx="2" cy="2" r="2" transform="translate(1460 204)" fill="#d7dbe8"/>
      </g>
      <g transform="translate(-1446 -190)">
        <circle id="Ellipse_17-7" data-name="Ellipse 17" cx="2" cy="2" r="2" transform="translate(1460 204)" fill="#d7dbe8"/>
      </g>
      <g transform="translate(-1432 -190)">
        <circle id="Ellipse_17-8" data-name="Ellipse 17" cx="2" cy="2" r="2" transform="translate(1460 204)" fill="#d7dbe8"/>
      </g>
      <g transform="translate(-1418 -190)">
        <circle id="Ellipse_17-9" data-name="Ellipse 17" cx="2" cy="2" r="2" transform="translate(1460 204)" fill="#d7dbe8"/>
      </g>
      <g transform="translate(-1404 -190)">
        <circle id="Ellipse_17-10" data-name="Ellipse 17" cx="2" cy="2" r="2" transform="translate(1460 204)" fill="#d7dbe8"/>
      </g>
      <g transform="translate(-1460 -176)">
        <circle id="Ellipse_17-11" data-name="Ellipse 17" cx="2" cy="2" r="2" transform="translate(1460 204)" fill="#d7dbe8"/>
      </g>
      <g transform="translate(-1446 -176)">
        <circle id="Ellipse_17-12" data-name="Ellipse 17" cx="2" cy="2" r="2" transform="translate(1460 204)" fill="#d7dbe8"/>
      </g>
      <g transform="translate(-1432 -176)">
        <circle id="Ellipse_17-13" data-name="Ellipse 17" cx="2" cy="2" r="2" transform="translate(1460 204)" fill="#d7dbe8"/>
      </g>
      <g transform="translate(-1418 -176)">
        <circle id="Ellipse_17-14" data-name="Ellipse 17" cx="2" cy="2" r="2" transform="translate(1460 204)" fill="#d7dbe8"/>
      </g>
      <g transform="translate(-1404 -176)">
        <circle id="Ellipse_17-15" data-name="Ellipse 17" cx="2" cy="2" r="2" transform="translate(1460 204)" fill="#d7dbe8"/>
      </g>
      <g transform="translate(-1460 -162)">
        <circle id="Ellipse_17-16" data-name="Ellipse 17" cx="2" cy="2" r="2" transform="translate(1460 204)" fill="#d7dbe8"/>
      </g>
      <g transform="translate(-1446 -162)">
        <circle id="Ellipse_17-17" data-name="Ellipse 17" cx="2" cy="2" r="2" transform="translate(1460 204)" fill="#d7dbe8"/>
      </g>
      <g transform="translate(-1432 -162)">
        <circle id="Ellipse_17-18" data-name="Ellipse 17" cx="2" cy="2" r="2" transform="translate(1460 204)" fill="#d7dbe8"/>
      </g>
      <g transform="translate(-1418 -162)">
        <circle id="Ellipse_17-19" data-name="Ellipse 17" cx="2" cy="2" r="2" transform="translate(1460 204)" fill="#d7dbe8"/>
      </g>
      <g transform="translate(-1404 -162)">
        <circle id="Ellipse_17-20" data-name="Ellipse 17" cx="2" cy="2" r="2" transform="translate(1460 204)" fill="#d7dbe8"/>
      </g>
      <g transform="translate(-1460 -148)">
        <circle id="Ellipse_17-21" data-name="Ellipse 17" cx="2" cy="2" r="2" transform="translate(1460 204)" fill="#d7dbe8"/>
      </g>
      <g transform="translate(-1446 -148)">
        <circle id="Ellipse_17-22" data-name="Ellipse 17" cx="2" cy="2" r="2" transform="translate(1460 204)" fill="#d7dbe8"/>
      </g>
      <g transform="translate(-1432 -148)">
        <circle id="Ellipse_17-23" data-name="Ellipse 17" cx="2" cy="2" r="2" transform="translate(1460 204)" fill="#d7dbe8"/>
      </g>
      <g transform="translate(-1418 -148)">
        <circle id="Ellipse_17-24" data-name="Ellipse 17" cx="2" cy="2" r="2" transform="translate(1460 204)" fill="#d7dbe8"/>
      </g>
      <g transform="translate(-1404 -148)">
        <circle id="Ellipse_17-25" data-name="Ellipse 17" cx="2" cy="2" r="2" transform="translate(1460 204)" fill="#d7dbe8"/>
      </g>
      <g transform="translate(-1460 -134)">
        <circle id="Ellipse_17-26" data-name="Ellipse 17" cx="2" cy="2" r="2" transform="translate(1460 204)" fill="#d7dbe8"/>
      </g>
      <g transform="translate(-1446 -134)">
        <circle id="Ellipse_17-27" data-name="Ellipse 17" cx="2" cy="2" r="2" transform="translate(1460 204)" fill="#d7dbe8"/>
      </g>
      <g transform="translate(-1432 -134)">
        <circle id="Ellipse_17-28" data-name="Ellipse 17" cx="2" cy="2" r="2" transform="translate(1460 204)" fill="#d7dbe8"/>
      </g>
      <g transform="translate(-1418 -134)">
        <circle id="Ellipse_17-29" data-name="Ellipse 17" cx="2" cy="2" r="2" transform="translate(1460 204)" fill="#d7dbe8"/>
      </g>
      <g transform="translate(-1404 -134)">
        <circle id="Ellipse_17-30" data-name="Ellipse 17" cx="2" cy="2" r="2" transform="translate(1460 204)" fill="#d7dbe8"/>
      </g>
      <g transform="translate(-1460 -120)">
        <circle id="Ellipse_17-31" data-name="Ellipse 17" cx="2" cy="2" r="2" transform="translate(1460 204)" fill="#d7dbe8"/>
      </g>
      <g transform="translate(-1446 -120)">
        <circle id="Ellipse_17-32" data-name="Ellipse 17" cx="2" cy="2" r="2" transform="translate(1460 204)" fill="#d7dbe8"/>
      </g>
      <g transform="translate(-1432 -120)">
        <circle id="Ellipse_17-33" data-name="Ellipse 17" cx="2" cy="2" r="2" transform="translate(1460 204)" fill="#d7dbe8"/>
      </g>
      <g transform="translate(-1418 -120)">
        <circle id="Ellipse_17-34" data-name="Ellipse 17" cx="2" cy="2" r="2" transform="translate(1460 204)" fill="#d7dbe8"/>
      </g>
      <g transform="translate(-1404 -120)">
        <circle id="Ellipse_17-35" data-name="Ellipse 17" cx="2" cy="2" r="2" transform="translate(1460 204)" fill="#d7dbe8"/>
      </g>
    </g>
  </g>
</svg>
